<?xml version="1.0" standalone="no"?><!DOCTYPE svg PUBLIC "-//W3C//DTD SVG 1.1//EN" "http://www.w3.org/Graphics/SVG/1.1/DTD/svg11.dtd"><svg t="1578285853116" class="icon" viewBox="0 0 1024 1024" version="1.1" xmlns="http://www.w3.org/2000/svg" p-id="7523" xmlns:xlink="http://www.w3.org/1999/xlink" width="16" height="16"><defs><style type="text/css"></style></defs><path d="M514.048 151.552c133.12 1.024 240.64 109.568 239.616 241.664 0 57.344-21.504 113.664-59.392 156.672L514.048 729.088l-184.32-181.248c-39.936-47.104-60.416-107.52-57.344-169.984 7.168-118.784 105.472-219.136 224.256-226.304h17.408m0-81.92c-7.168 0-15.36 0-22.528 1.024-161.792 10.24-291.84 142.336-301.056 303.104-5.12 88.064 25.6 168.96 78.848 230.4l220.16 216.064c7.168 7.168 15.36 10.24 24.576 10.24 9.216 0 18.432-3.072 25.6-10.24l214.016-214.016c50.176-56.32 80.896-131.072 81.92-212.992 0-178.176-143.36-322.56-321.536-323.584z" fill="#d81e06" p-id="7524"></path><path d="M509.952 954.368c-148.48-1.024-399.36-32.768-398.336-150.528 0-50.176 47.104-89.088 138.24-115.712 21.504-6.144 44.032 6.144 51.2 27.648 6.144 21.504-6.144 44.032-27.648 51.2-51.2 14.336-71.68 30.72-77.824 36.864 17.408 24.576 133.12 66.56 316.416 67.584 182.272 1.024 300.032-40.96 316.416-64.512-6.144-7.168-29.696-25.6-88.064-40.96-21.504-6.144-34.816-28.672-28.672-50.176 6.144-21.504 28.672-34.816 50.176-28.672C861.184 714.752 911.36 754.688 911.36 807.936c-2.048 116.736-252.928 147.456-401.408 146.432z m318.464-144.384zM512 468.992c-62.464 0-113.664-52.224-113.664-114.688S450.56 240.64 513.024 240.64s113.664 52.224 113.664 114.688-51.2 113.664-114.688 113.664z m1.024-146.432c-17.408 0-32.768 14.336-32.768 31.744s14.336 32.768 31.744 32.768 32.768-14.336 32.768-31.744-14.336-32.768-31.744-32.768z" fill="#d81e06" p-id="7525"></path></svg>