<?xml version="1.0" standalone="no"?><!DOCTYPE svg PUBLIC "-//W3C//DTD SVG 1.1//EN" "http://www.w3.org/Graphics/SVG/1.1/DTD/svg11.dtd"><svg t="1578573070663" class="icon" viewBox="0 0 1024 1024" version="1.1" xmlns="http://www.w3.org/2000/svg" p-id="8101" xmlns:xlink="http://www.w3.org/1999/xlink" width="30" height="30"><defs><style type="text/css"></style></defs><path d="M731.74682 406.53704l29.15297-29.127388-28.742625-28.798906 20.659529-35.71134-35.251875-20.334117 10.725272-39.850613-39.304168-10.561543 0-41.238216-40.667212 0-10.670014-39.850613-39.279608 10.532891-20.634969-35.738969-35.195593 20.305465-29.17753-29.17753-28.774347 28.771277-35.738969-20.659529-20.333094 35.248805-39.850613-10.750855-10.505261 39.331797-41.266869 0-0.027629 40.667212-39.847543 10.670014 10.505261 39.279608-35.71134 20.6319 20.331048 35.167964-29.206182 29.208229 28.798906 28.771277-20.659529 35.767622 35.195593 20.280906-10.670014 39.850613 39.276539 10.532891 0 41.263799 40.642652 0.027629 10.670014 39.850613 39.304168-10.532891 20.634969 35.738969 35.221176-20.334117 29.1806 29.1806 28.745694-28.745694 35.71134 20.662599 20.361747-35.223223 39.850613 10.670014 10.561543-39.279608 41.210587 0 0.027629-40.667212 39.847543-10.613732-10.505261-39.36045 35.71134-20.606317L731.74682 406.53704zM689.066765 385.874441c-0.462534 9.746992-1.524726 19.408025-3.511987 28.718065-1.251503 5.961782-2.803859 11.813047-4.65502 17.529235-2.8847 9.011234-6.558369 17.666358-10.806113 25.969465-2.829442 5.605671-5.934153 11.07729-9.334599 16.411785-4.983501 7.67582-10.589173 14.917758-16.659425 21.74935-4.381797 4.928243-9.009188 9.55461-13.908778 13.96506-6.589069 5.959735-13.446243 11.458983-20.85191 16.358573-5.798053 3.810792-11.893888 7.241938-18.128893 10.42442-7.592932 3.809769-15.514345 7.185656-23.681352 9.937326-6.884804 2.366907-13.881149 4.354168-21.122063 5.822612-8.029884 1.660826-16.330944 2.533706-24.714891 3.049452-3.701299 0.216941-7.40362 0.571005-11.160177 0.571005-3.810792 0-7.484462-0.354064-11.213389-0.571005-8.167007-0.515746-16.250102-1.388627-24.119327-2.937912-7.67582-1.552356-15.132652-3.676739-22.429849-6.179746-7.620561-2.642177-14.97097-5.717212-22.075785-9.281387-7.077186-3.511987-13.96199-7.350408-20.467147-11.759835-6.561439-4.409426-12.657274-9.41851-18.538215-14.672164-5.878894-5.253654-11.431354-10.806113-16.576537-16.765849-5.145184-5.961782-9.961886-12.249999-14.290471-18.86465-4.300956-6.505158-8.055466-13.446243-11.486612-20.523429-3.428076-7.132444-6.53381-14.482853-9.008164-22.156626-2.368954-7.269567-4.220115-14.836917-5.664-22.485107-1.468444-7.946996-2.313695-16.033162-2.692319-24.308639-0.1361-2.829442-0.437975-5.605671-0.437975-8.464789 0-4.708232 0.328481-9.334599 0.708128-13.908778 0.654916-8.43716 1.797949-16.657378 3.592828-24.714891 1.552356-7.185656 3.64911-14.07353 6.042623-20.877493 2.8847-8.110725 6.207375-16.060791 10.181897-23.572882 3.264347-6.260587 6.831592-12.222369 10.778484-17.99177 5.009084-7.322779 10.670014-14.156418 16.685008-20.606317 4.490268-4.871961 9.172917-9.44614 14.154371-13.747095 6.940063-6.014994 14.3181-11.378142 22.131043-16.275685 5.306866-3.266393 10.750855-6.315846 16.411785-9.092076 8.383948-4.082992 17.066701-7.67582 26.131147-10.42442 5.744841-1.717108 11.622712-3.214205 17.613146-4.384867 9.31004-1.851161 18.945491-2.77623 28.742625-3.130294 1.959631-0.080841 3.866051-0.245593 5.825682-0.245593 3.75758 0 7.458879 0.300852 11.160177 0.571005 10.042727 0.574075 19.84293 1.987261 29.342282 4.192485 5.418406 1.279133 10.781554 2.695389 15.95232 4.437056 9.526981 3.185552 18.72855 7.049556 27.491121 11.732206 4.792143 2.530636 9.474792 5.334495 13.992689 8.303106 8.464789 5.552459 16.359596 11.813047 23.708981 18.699897 3.89061 3.618411 7.592932 7.40362 11.18576 11.350512 6.723122 7.53972 12.874215 15.541975 18.292622 24.088628 2.8847 4.546549 5.580089 9.200546 8.055466 13.992689 4.520967 8.818853 8.44023 18.020422 11.4334 27.575032 1.686409 5.279237 3.102664 10.723226 4.273327 16.222473 2.043542 9.499351 3.185552 19.299555 3.64911 29.314653 0.1361 2.831488 0.434905 5.636371 0.434905 8.493441C689.50167 380.26877 689.203888 383.044999 689.066765 385.874441z" p-id="8102" fill="#d81e06"></path><path d="M539.871791 229.632981l0 300.238039-48.858778 0L491.013013 360.804463l0-9.008164c0-11.949146-0.245593-19.980054-0.680499-24.143886-0.708128-6.642281-2.341325-11.622712-4.844332-14.809287-2.77623-3.238764-7.241938-5.552459-13.449313-6.940063-5.7694-1.143033-14.398942-1.741667-25.911136-1.741667l-6.887874 0 0-26.538423c17.501606-3.676739 32.310893-9.664104 44.530193-17.939581 11.462053-7.40362 21.914102-17.393135 31.332612-30.05041L539.871791 229.632981z" p-id="8103" fill="#d81e06"></path><path d="M438.178691 640.439254 418.851507 601.840144 375.246383 611.93813 362.66995 569.121975 331.802942 572.059887 217.85882 814.20995 362.125551 757.376547 443.187775 894.510834 502.499625 649.990794 475.088322 621.139699Z" p-id="8104" fill="#d81e06"></path><path d="M585.821309 642.914632 605.120864 604.317569 648.753617 614.360296 661.33005 571.624982 692.169429 574.509682 806.14118 816.688397 661.845797 759.879554 580.812225 897.013841 521.472745 652.469242 548.910655 623.615077Z" p-id="8105" fill="#d81e06"></path></svg>