<?xml version="1.0" standalone="no"?><!DOCTYPE svg PUBLIC "-//W3C//DTD SVG 1.1//EN" "http://www.w3.org/Graphics/SVG/1.1/DTD/svg11.dtd"><svg t="1578662601926" class="icon" viewBox="0 0 1024 1024" version="1.1" xmlns="http://www.w3.org/2000/svg" p-id="2157" xmlns:xlink="http://www.w3.org/1999/xlink" width="20" height="20"><defs><style type="text/css"></style></defs><path d="M0 488.727273h1024v93.090909H0z" fill="#d81e06" p-id="2158"></path><path d="M930.909091 302.545455v558.545454H93.090909V302.545455h837.818182m0-93.09091H93.090909c-51.2 0-93.090909 41.890909-93.090909 93.09091v558.545454c0 51.2 41.890909 93.090909 93.090909 93.090909h837.818182c51.2 0 93.090909-41.890909 93.090909-93.090909V302.545455c0-51.2-41.890909-93.090909-93.090909-93.09091z" fill="#d81e06" p-id="2159"></path><path d="M674.909091 162.909091v46.545454H349.090909V162.909091h325.818182m0-93.090909H349.090909c-51.2 0-93.090909 41.890909-93.090909 93.090909v139.636364h512V162.909091c0-51.2-41.890909-93.090909-93.090909-93.090909zM558.545455 465.454545h-93.09091c-13.963636 0-23.272727 9.309091-23.272727 23.272728v93.090909c0 13.963636 9.309091 23.272727 23.272727 23.272727h93.09091c13.963636 0 23.272727-9.309091 23.272727-23.272727v-93.090909c0-13.963636-9.309091-23.272727-23.272727-23.272728z" fill="#d81e06" p-id="2160"></path></svg>