<?xml version="1.0" standalone="no"?><!DOCTYPE svg PUBLIC "-//W3C//DTD SVG 1.1//EN" "http://www.w3.org/Graphics/SVG/1.1/DTD/svg11.dtd"><svg t="1578914962357" class="icon" viewBox="0 0 1024 1024" version="1.1" xmlns="http://www.w3.org/2000/svg" p-id="3347" xmlns:xlink="http://www.w3.org/1999/xlink" width="15" height="15"><defs><style type="text/css"></style></defs><path d="M901.12 212.48c15.36 0 28.16 5.12 38.4 15.36 10.24 10.24 15.36 23.04 15.36 35.84v540.16c0 28.16-23.04 53.76-53.76 53.76H122.88c-30.72 0-53.76-23.04-53.76-53.76V263.68c0-28.16 23.04-53.76 53.76-53.76h778.24m0-58.88H122.88c-64 0-115.2 51.2-115.2 115.2v540.16c0 61.44 51.2 115.2 115.2 115.2h778.24c64 0 115.2-51.2 115.2-115.2V263.68c0-61.44-51.2-112.64-115.2-112.64z" p-id="3348" fill="#dbdbdb"></path><path d="M734.72 332.8c61.44 0 112.64 51.2 112.64 112.64 0 61.44-51.2 112.64-112.64 112.64-61.44 0-112.64-51.2-112.64-112.64s51.2-112.64 112.64-112.64z" p-id="3349" fill="#dbdbdb"></path><path d="M734.72 734.72c-120.32 0-171.52-25.6-171.52-35.84 0-15.36 5.12-30.72 10.24-48.64 25.6-61.44 87.04-97.28 151.04-89.6h17.92c64-5.12 125.44 28.16 151.04 92.16 7.68 15.36 10.24 33.28 10.24 46.08 2.56 10.24-51.2 35.84-168.96 35.84z" p-id="3350" fill="#dbdbdb"></path><path d="M445.44 407.04H174.08c-17.92 0-30.72-12.8-30.72-30.72s12.8-30.72 30.72-30.72h271.36c17.92 0 30.72 12.8 30.72 30.72s-12.8 30.72-30.72 30.72zM445.44 565.76H174.08c-17.92 0-30.72-12.8-30.72-30.72s12.8-30.72 30.72-30.72h271.36c17.92 0 30.72 12.8 30.72 30.72 0 15.36-12.8 30.72-30.72 30.72zM445.44 721.92H174.08c-17.92 0-30.72-12.8-30.72-30.72s12.8-30.72 30.72-30.72h271.36c17.92 0 30.72 12.8 30.72 30.72s-12.8 30.72-30.72 30.72z" p-id="3351" fill="#9CA5B0"></path></svg>