<?xml version="1.0" standalone="no"?><!DOCTYPE svg PUBLIC "-//W3C//DTD SVG 1.1//EN" "http://www.w3.org/Graphics/SVG/1.1/DTD/svg11.dtd"><svg t="1578916982732" class="icon" viewBox="0 0 1024 1024" version="1.1" xmlns="http://www.w3.org/2000/svg" p-id="1940" width="15" height="15" xmlns:xlink="http://www.w3.org/1999/xlink"><defs><style type="text/css"></style></defs><path d="M512 64C264.32 64 64 264.32 64 512s200.32 448 448 448 448-200.32 448-448S759.68 64 512 64zM512 768c-35.2 0-64-28.8-64-64 0-35.2 28.8-64 64-64 35.2 0 64 28.8 64 64C576 739.2 547.2 768 512 768zM576 512c0 35.2-28.8 64-64 64C476.8 576 448 547.2 448 512L448 320c0-35.2 28.8-64 64-64 35.2 0 64 28.8 64 64L576 512z" p-id="1941" fill="#d81e06"></path></svg>