<?xml version="1.0" standalone="no"?><!DOCTYPE svg PUBLIC "-//W3C//DTD SVG 1.1//EN" "http://www.w3.org/Graphics/SVG/1.1/DTD/svg11.dtd"><svg t="1578722582183" class="icon" viewBox="0 0 1024 1024" version="1.1" xmlns="http://www.w3.org/2000/svg" p-id="11049" xmlns:xlink="http://www.w3.org/1999/xlink" width="20" height="20"><defs><style type="text/css"></style></defs><path d="M754.536 985.581H604.198V656.232c0-17.825-5.044-41.187-20.48-41.187H440.51c-15.398 0-20.48 23.4-20.48 41.187v329.349H269.464c-67.964 0-115.447-43.994-115.447-102.93V573.894l-21.466-0.114h-0.114c-61.895 0-82.792-26.472-89.657-42.287-6.485-15.019-11.567-46.497 27.686-88.33l336.403-358.4A143.132 143.132 0 0 1 512 38.684c39.898 0 77.217 16.347 105.13 46.08l336.404 358.4c39.215 41.795 34.133 73.311 27.686 88.292-6.865 15.853-27.8 42.363-91.06 42.363l-19.912 0.076V882.65c0 57.913-48.924 102.931-115.674 102.931z m-109.378-41.188h109.416c44.45 0 74.714-26.168 74.714-61.743V532.708h59.62c34.93-0.038 50.972-9.482 54.5-17.598 4.095-9.482-3.528-26.283-19.912-43.729l-336.403-358.4A102.286 102.286 0 0 0 512 79.834a102.4 102.4 0 0 0-75.093 33.147L100.504 471.343c-16.384 17.484-24.045 34.248-19.911 43.767 3.489 8.116 19.531 17.56 53.21 17.56l61.136 0.038V882.65c0 35.613 30.038 61.743 74.525 61.743h109.644v-288.16c0-42.402 19.531-82.338 61.402-82.338h143.246c41.832 0 61.402 39.936 61.402 82.3V944.43z" fill="#d81e06" p-id="11050"></path></svg>