<?xml version="1.0" standalone="no"?><!DOCTYPE svg PUBLIC "-//W3C//DTD SVG 1.1//EN" "http://www.w3.org/Graphics/SVG/1.1/DTD/svg11.dtd"><svg t="1578709623700" class="icon" viewBox="0 0 1025 1024" version="1.1" xmlns="http://www.w3.org/2000/svg" p-id="5700" xmlns:xlink="http://www.w3.org/1999/xlink" width="20.01953125" height="20"><defs><style type="text/css"></style></defs><path d="M1024.90197 43.234432a44.238707 44.238707 0 0 0-0.780301-7.882481l-0.04335-0.296225a43.256107 43.256107 0 0 0-2.283102-7.607931c-0.065025-0.15895-0.108375-0.3179-0.1734-0.469625a43.075482 43.075482 0 0 0-3.771453-7.10218c-0.0867-0.13005-0.151725-0.267325-0.238425-0.397376a43.321132 43.321132 0 0 0-5.454879-6.632555l-0.036125-0.04335-0.1156-0.093925a43.718507 43.718507 0 0 0-6.516955-5.288704c-0.2023-0.13005-0.411825-0.24565-0.614125-0.368475a43.126057 43.126057 0 0 0-6.89988-3.598052c-0.2312-0.093925-0.4624-0.166175-0.700826-0.252876a42.880406 42.880406 0 0 0-7.39118-2.160276l-0.599675-0.093925a43.704057 43.704057 0 0 0-7.709081-0.722501H534.909336a43.350032 43.350032 0 0 0 0 86.700064h342.530276l-241.676427 243.381528c-67.358724-55.870966-153.581937-89.597291-247.124081-89.597291l-5.202004 0.036125c-103.779976 1.365526-200.819022 43.061032-273.23525 117.413561C37.778397 432.510492-1.352232 530.604389 0.013294 634.39159c2.781627 211.43978 177.01263 383.445481 388.401834 383.44548l5.223679-0.036125c103.779976-1.358301 200.819022-43.046582 273.242475-117.391886s111.554082-172.446426 110.188556-276.211952c-1.134326-86.916814-31.291498-167.136047-81.042884-231.518069l242.196627-243.923404V490.216609a43.350032 43.350032 0 0 0 86.700064 0V43.566782l-0.007225-0.093925-0.01445-0.238425zM604.775137 839.91409c-56.261116 57.756692-131.654046 90.146391-212.277881 91.201242l-4.082128 0.021675c-164.202695 0-299.548719-133.633698-301.708995-297.886968-1.062076-80.616609 29.340746-156.83319 85.601862-214.589882 56.261116-57.763917 131.654046-90.153616 212.277881-91.215692l4.060453-0.0289c164.22437 0 299.584844 133.640923 301.737896 297.915868 1.054851 80.616609-29.347971 156.825965-85.609088 214.582657z" fill="#1296db" p-id="5701"></path></svg>