<?xml version="1.0" standalone="no"?><!DOCTYPE svg PUBLIC "-//W3C//DTD SVG 1.1//EN" "http://www.w3.org/Graphics/SVG/1.1/DTD/svg11.dtd"><svg t="1579091817413" class="icon" viewBox="0 0 1024 1024" version="1.1" xmlns="http://www.w3.org/2000/svg" p-id="2387" width="20" height="20" xmlns:xlink="http://www.w3.org/1999/xlink"><defs><style type="text/css"></style></defs><path d="M909.23 217.28H114.77c-14.17 0-25.627-11.457-25.627-25.626 0-14.15 11.456-25.632 25.627-25.632H909.23c14.172 0 25.627 11.482 25.627 25.632 0 14.17-11.455 25.626-25.627 25.626M652.95 114.77h-281.9c-14.172 0-25.632-11.455-25.632-25.63 0-14.146 11.461-25.627 25.632-25.627h281.9c14.177 0 25.632 11.483 25.632 25.626 0 14.176-11.456 25.631-25.632 25.631M396.674 781.087V345.419c0-14.15 11.454-25.63 25.626-25.63 14.177 0 25.63 11.48 25.63 25.63v435.667c0 14.175-11.453 25.63-25.63 25.63-14.17 0.001-25.626-11.453-25.626-25.63m179.394 0V345.42c0-14.15 11.46-25.63 25.63-25.63s25.627 11.48 25.627 25.63v435.667c0 14.175-11.454 25.63-25.626 25.63s-25.63-11.453-25.63-25.63M217.282 294.163c14.171 0 25.626 11.484 25.626 25.626V857.968c0 28.293 22.964 51.26 51.257 51.26h435.666c28.293 0 51.258-22.966 51.258-51.26V319.789c0-14.143 11.453-25.626 25.626-25.626 14.176 0 25.631 11.484 25.631 25.626V883.602c0 42.465-34.42 76.884-76.884 76.884H268.535c-42.464 0-76.884-34.42-76.884-76.884V319.788c0-14.142 11.46-25.626 25.632-25.626m0 0z" fill="#545454" p-id="2388"></path></svg>