<?xml version="1.0" standalone="no"?><!DOCTYPE svg PUBLIC "-//W3C//DTD SVG 1.1//EN" "http://www.w3.org/Graphics/SVG/1.1/DTD/svg11.dtd"><svg t="1578572770781" class="icon" viewBox="0 0 1049 1024" version="1.1" xmlns="http://www.w3.org/2000/svg" p-id="1838" width="30.732421875" height="30" xmlns:xlink="http://www.w3.org/1999/xlink"><defs><style type="text/css"></style></defs><path d="M342.549914 582.345214c-79.561214 30.438433-150.590423 81.266553-205.417587 146.98318-55.423502 66.433826-92.768291 146.365593-107.990164 231.159699-2.017453 11.260016 5.467974 22.023305 16.731974 24.047399a20.705785 20.705785 0 0 0 3.682947 0.326723c9.836244 0 18.563486-7.035185 20.363124-17.053385C98.071575 810.973468 208.208021 678.101831 357.350765 621.03807c10.687585-4.086703 16.032042-16.067901 11.941354-26.750174-4.08139-10.682272-16.05462-16.030713-26.742205-11.942682z m0 0M1013.1371 960.612939c-20.425546-113.945567-80.633027-218.074812-169.5404-293.210646-44.150205-37.307601-93.87862-66.421873-147.797333-86.535305-55.812649-20.816021-114.579092-31.372119-174.672353-31.372119-131.147704 0-237.841598-106.699206-237.841598-237.848239 0-131.14372 106.693894-237.841598 237.841598-237.841598 131.149032 0 237.846911 106.697878 237.846911 237.841598 0 65.919834-26.345089 127.211082-74.188867 172.59115-8.300908 7.875901-8.643569 20.980711-0.77298 29.282946 7.875901 8.300908 20.986023 8.648882 29.281618 0.772981 27.221665-25.820472 48.64332-56.258905 63.663316-90.475912 15.559222-35.434916 23.44442-73.172835 23.44442-112.171165 0-74.593951-29.047865-144.726661-81.795154-197.47395s-122.88-81.795154-197.473951-81.795155c-74.597935 0-144.726661 29.047865-197.473951 81.795155-52.752602 52.747289-81.800467 122.88-81.800467 197.47395 0 74.597935 29.047865 144.731974 81.800467 197.477935 52.747289 52.747289 122.876016 81.795154 197.473951 81.795155 222.308939 0 412.078319 158.552654 451.232041 376.998018 1.795652 10.028825 10.521567 17.06401 20.363124 17.06401 1.208612 0 2.443787-0.110236 3.678962-0.328052 11.257359-2.017453 18.749427-12.783398 16.730646-24.040757z m0 0" fill="#d81e06" p-id="1839"></path></svg>