<?xml version="1.0" standalone="no"?><!DOCTYPE svg PUBLIC "-//W3C//DTD SVG 1.1//EN" "http://www.w3.org/Graphics/SVG/1.1/DTD/svg11.dtd"><svg t="1578722567853" class="icon" viewBox="0 0 1024 1024" version="1.1" xmlns="http://www.w3.org/2000/svg" p-id="10209" xmlns:xlink="http://www.w3.org/1999/xlink" width="20" height="20"><defs><style type="text/css"></style></defs><path d="M672.7 560.2H361.4c-11 0-20-9-20-20s9-20 20-20h311.3c11 0 20 9 20 20s-9 20-20 20zM672.7 715.8H361.4c-11 0-20-9-20-20s9-20 20-20h311.3c11 0 20 9 20 20s-9 20-20 20zM672.7 404.5H361.4c-11 0-20-9-20-20s9-20 20-20h311.3c11 0 20 9 20 20s-9 20-20 20z" p-id="10210" fill="#d81e06"></path><path d="M641.8 98.2H278.6c-47.8 0-77.8 33.2-77.8 85.9v658.3c0 52.7 30.1 85.9 77.8 85.9H750c47.8 0 73.5-33.2 73.5-85.9V327.2l-181.7-229z m129.8 703c0 75.1 0 75.1-67.4 75.1H324c-71.4 0-71.4 0-71.4-75.1v-576c0-75.1 0-75.1 71.4-75.1h281.1l166.5 200.4v450.7z" p-id="10211" fill="#d81e06"></path></svg>