<?xml version="1.0" standalone="no"?><!DOCTYPE svg PUBLIC "-//W3C//DTD SVG 1.1//EN" "http://www.w3.org/Graphics/SVG/1.1/DTD/svg11.dtd"><svg t="1578722549508" class="icon" viewBox="0 0 1024 1024" version="1.1" xmlns="http://www.w3.org/2000/svg" p-id="9378" xmlns:xlink="http://www.w3.org/1999/xlink" width="20" height="20"><defs><style type="text/css"></style></defs><path d="M949.5 500.2c-72.9-135.4-247-272.3-437.5-272.3S147.4 364.8 74.5 500.2l-8.9 14.9 8.9 14.9c72.9 133.9 247 270.8 437.5 270.8S876.6 663.9 949.5 530l8.9-14.9-8.9-14.9zM751.6 680.3C698.1 716 613.2 759.2 512 759.2S326 716 272.4 680.3c-67-44.6-123.5-105.7-159.2-166.7 16.4-29.8 38.7-58 64-86.3 28.3-29.8 59.5-58 95.2-80.4 53.6-34.2 138.4-77.4 239.6-77.4s186 43.2 239.6 77.4c34.2 23.8 67 50.6 95.2 80.4 25.3 28.3 47.6 56.5 64 86.3-35.7 62.5-92.2 123.5-159.2 166.7z" p-id="9379" fill="#d81e06"></path><path d="M512 393.1c-67 0-122 55.1-122 122s55.1 122 122 122 122-55.1 122-122-55-122-122-122z m0 203.8c-44.6 0-80.4-35.7-80.4-80.4s35.7-80.4 80.4-80.4c44.6 0 80.4 35.7 80.4 80.4s-35.7 80.4-80.4 80.4z" p-id="9380" fill="#d81e06"></path></svg>