<?xml version="1.0" standalone="no"?><!DOCTYPE svg PUBLIC "-//W3C//DTD SVG 1.1//EN" "http://www.w3.org/Graphics/SVG/1.1/DTD/svg11.dtd"><svg t="1578914695982" class="icon" viewBox="0 0 1024 1024" version="1.1" xmlns="http://www.w3.org/2000/svg" p-id="2543" width="15" height="15" xmlns:xlink="http://www.w3.org/1999/xlink"><defs><style type="text/css"></style></defs><path d="M163.328 717.312c15.36-4.096 30.72 4.608 35.328 19.968 4.096 15.36-4.608 30.72-19.968 35.328-64.512 17.408-98.816 39.424-98.816 49.664 0 36.864 195.072 85.504 428.544 85.504s428.544-48.64 428.544-85.504c0-2.56-4.608-8.704-16.896-16.384-16.384-10.752-41.472-20.992-73.728-30.72-14.848-4.608-23.04-20.48-18.944-35.328 4.096-14.848 19.968-23.552 34.816-19.456 82.944 24.064 131.584 55.808 131.584 101.888 0 89.088-214.016 142.848-485.376 142.848S23.04 911.36 23.04 822.272c-1.024-47.616 51.2-80.384 140.288-104.96zM507.904 245.76c-62.976 0-114.176 51.2-114.176 114.176s51.2 114.176 114.176 114.176 114.176-51.2 114.176-114.176S570.88 245.76 507.904 245.76z m49.152 142.848c-10.24 17.92-29.184 28.672-49.664 28.672-31.744 0-57.344-25.6-57.344-57.344 0-31.744 25.6-57.344 57.344-57.344 20.48 0 39.424 10.752 49.664 28.672 10.24 17.92 10.24 39.424 0 57.344z" fill="#9DA7B2" p-id="2544"></path><path d="M507.904 816.64l-17.92-17.408c-11.776-11.264-283.136-278.528-283.136-439.296 0-165.888 135.168-301.056 301.056-301.056S808.96 194.048 808.96 359.936c0 161.28-271.36 428.032-283.136 439.296l-17.92 17.408z m0-706.56c-137.728 0-249.856 112.128-249.856 249.856 0 107.52 166.4 299.52 249.856 385.024 83.456-85.504 249.856-277.504 249.856-385.024-0.512-137.728-112.128-249.856-249.856-249.856z" fill="#9CA5B0" p-id="2545"></path></svg>